<?xml version="1.0" encoding="utf-8"?><svg width="61" height="31" viewBox="0 0 61 31" xmlns="http://www.w3.org/2000/svg" xmlns:xlink="http://www.w3.org/1999/xlink"><svg version="1.1" id="arrow-down" y="26" viewBox="0 0 7.4 4.2" xml:space="preserve" width="7.4" height="4.2" xmlns="http://www.w3.org/2000/svg"><style>.ast0{fill-rule:evenodd;clip-rule:evenodd}</style><path class="ast0" d="M7.2.9L4 4c-.2.2-.5.2-.7 0L.1.9C0 .7 0 .3.1.1s.5-.2.7 0L3.7 3 6.5.2c.2-.2.5-.2.7-.1.2.2.2.6 0 .8z"/></svg><svg width="33" height="26" viewBox="0 0 33 26" id="sound-off" xmlns="http://www.w3.org/2000/svg"><path fill-rule="evenodd" clip-rule="evenodd" d="M27.619 13l4.39-4.39-1.885-1.886-4.39 4.39-4.391-4.39-1.886 1.885L23.847 13l-4.39 4.39 1.886 1.886 4.39-4.39 4.39 4.39 1.887-1.886L27.619 13z"/><path d="M0 13c0-.77 0-1.154.043-1.49a5.333 5.333 0 013.755-4.433c.324-.097.704-.16 1.463-.287l1.345-.224c.448-.075.672-.112.881-.184.3-.103.579-.259.824-.46.171-.14.32-.31.62-.652l.925-1.057C12.17 1.567 13.328.245 14.334.118a2.667 2.667 0 012.325.874c.674.758.674 2.515.674 6.03v11.956c0 3.515 0 5.272-.674 6.03a2.666 2.666 0 01-2.325.874c-1.006-.127-2.164-1.45-4.478-4.095L8.93 20.73c-.3-.341-.449-.512-.62-.653a2.667 2.667 0 00-.824-.459c-.21-.072-.433-.109-.881-.184L5.26 19.21c-.76-.126-1.139-.19-1.463-.287A5.333 5.333 0 01.043 14.49C0 14.154 0 13.77 0 13z"/></svg><svg width="28" height="26" viewBox="0 0 28 26" id="sound-on" x="33" xmlns="http://www.w3.org/2000/svg"><path d="M0 13c0-.77 0-1.154.043-1.49a5.333 5.333 0 013.755-4.433c.324-.097.704-.16 1.463-.287l1.345-.224c.448-.075.672-.112.881-.184.3-.103.579-.259.824-.46.171-.14.32-.31.62-.652l.925-1.057C12.17 1.567 13.328.245 14.334.118a2.667 2.667 0 012.325.874c.674.758.674 2.515.674 6.03v11.956c0 3.515 0 5.272-.674 6.03a2.666 2.666 0 01-2.325.874c-1.006-.127-2.164-1.45-4.478-4.095L8.93 20.73c-.3-.341-.449-.512-.62-.653a2.667 2.667 0 00-.824-.459c-.21-.072-.433-.109-.881-.184L5.26 19.21c-.76-.126-1.139-.19-1.463-.287A5.333 5.333 0 01.043 14.49C0 14.154 0 13.77 0 13zM20 5h2.667v16H20V5zM25.333 7.667H28v10.666h-2.667V7.667z"/></svg></svg>