<?xml version="1.0" encoding="utf-8"?>
<!-- Generator: Adobe Illustrator 23.1.0, SVG Export Plug-In . SVG Version: 6.00 Build 0)  -->
<svg version="1.1" id="Layer_1" xmlns="http://www.w3.org/2000/svg" xmlns:xlink="http://www.w3.org/1999/xlink" x="0px" y="0px"
	 viewBox="0 0 164.2 19.4" style="enable-background:new 0 0 164.2 19.4;" xml:space="preserve">
<style type="text/css">
	.st0{fill:#00C1FF;}
	.st1{fill:#FCDE00;}
	.st2{fill:#FCDE00;filter:url(#Adobe_OpacityMaskFilter);}
	.st3{mask:url(#mask0_1_);}
	.st4{fill:#FF8A00;}
</style>
<path class="st0" d="M3.5,18.8C1.4,20,0,19,0,17.3C0,15.5,0,10,0,10s0-5.5,0-7.3c0-1.7,1.4-2.7,3.5-1.5C6.6,2.9,16,8.3,16,8.3
	c1.3,0.7,1.3,2.5,0,3.3C16,11.6,6.6,17,3.5,18.8z"/>
<path class="st1" d="M13.8,18.8c-2,1.2-3.5,0.2-3.5-1.5c0-1.8,0-7.3,0-7.3s0-5.5,0-7.3c0-1.7,1.4-2.7,3.5-1.5
	c3.1,1.8,12.3,7.1,12.3,7.1c1.4,0.8,1.4,2.8,0,3.6C26.1,11.8,16.9,17.1,13.8,18.8z"/>
<defs>
	<filter id="Adobe_OpacityMaskFilter" filterUnits="userSpaceOnUse" x="0" y="0.6" width="16.9" height="18.8">
		<feColorMatrix  type="matrix" values="1 0 0 0 0  0 1 0 0 0  0 0 1 0 0  0 0 0 1 0"/>
	</filter>
</defs>
<mask maskUnits="userSpaceOnUse" x="0" y="0.6" width="16.9" height="18.8" id="mask0_1_">
	<path class="st2" d="M13.8,18.8c-2,1.2-3.5,0.2-3.5-1.5c0-1.8,0-7.3,0-7.3s0-5.5,0-7.3c0-1.7,1.4-2.7,3.5-1.5
		c3.1,1.8,12.3,7.1,12.3,7.1c1.4,0.8,1.4,2.8,0,3.6C26.1,11.8,16.9,17.1,13.8,18.8z"/>
</mask>
<g class="st3">
	<g>
		<path class="st4" d="M3.5,18.8C1.4,20,0,19,0,17.3C0,15.5,0,10,0,10s0-5.5,0-7.3c0-1.7,1.4-2.7,3.5-1.5C6.6,2.9,16,8.3,16,8.3
			c1.3,0.7,1.3,2.5,0,3.3C16,11.6,6.6,17,3.5,18.8z"/>
	</g>
</g>
<path d="M33.8,13.2l0.4-0.8c0.2-0.5,0.7-0.7,1.2-0.3c1,0.8,2.8,1.3,5,1.3c1.9,0,2.8-0.5,2.8-1.1c0-0.7-0.7-0.9-1.8-1l-2.6-0.3
	c-3.1-0.4-4.7-1.5-4.7-3.5c0-2.1,1.7-3.8,5.7-3.8c2.2,0,3.6,0.3,4.6,0.7c1,0.4,1.2,0.7,1.2,1.6v1.1c0,0.7-0.2,0.9-0.9,0.9h-0.7
	c-0.7,0-0.9-0.2-0.9-0.9V6.8c-0.4-0.1-1.5-0.4-2.8-0.4c-2.2,0-3.3,0.4-3.3,1.1c0,0.5,0.6,0.8,1.8,1l2.5,0.3c3.1,0.4,4.8,1.3,4.8,3.6
	c0,2.3-2.2,3.7-6,3.7c-2.8,0-5.1-0.9-6-1.7C33.7,14.1,33.6,13.6,33.8,13.2z"/>
<path d="M61.9,15.9h-1.3c-0.6,0-0.9-0.1-1.2-0.6l-2.5-3.6c-0.4-0.5-0.6-0.6-1.4-0.6h-2.5V15c0,0.7-0.2,0.9-0.9,0.9h-1
	c-0.7,0-0.9-0.2-0.9-0.9V3.2h-0.9c-0.7,0-0.9-0.2-0.9-0.9V1.5c0-0.7,0.2-0.9,0.9-0.9h2.7c0.7,0,0.9,0.2,0.9,0.9v6.9h2.2
	c0.7,0,1-0.1,1.4-0.6l2.1-3.2C59,4.1,59.3,4,59.9,4h1.3c0.7,0,0.9,0.6,0.5,1.2l-2.3,3.5c-0.2,0.3-0.5,0.7-0.8,1
	c0.3,0.2,0.7,0.6,0.9,0.9l2.9,4.2C62.7,15.3,62.6,15.9,61.9,15.9z"/>
<path d="M66.3,18.1v-0.8c0-0.7,0.2-0.9,0.9-0.9h1.1c0.7,0,1-0.1,1.3-0.7l0.1-0.3L64.4,5.1C64,4.5,64.3,4,65,4h1.2
	c0.6,0,0.9,0.1,1.2,0.6l2.3,4.7c0.5,1.1,1.1,2.3,1.6,3.4c0.5-1,1-2.2,1.5-3.3l2.3-4.8C75.4,4.1,75.7,4,76.3,4h1.2
	c0.7,0,1,0.5,0.6,1.1L72,16.9c-0.7,1.4-1.5,2.1-3.4,2.1h-1.4C66.6,19,66.3,18.8,66.3,18.1z"/>
<path d="M80.3,13.2l0.4-0.8c0.2-0.5,0.7-0.7,1.2-0.3c1,0.8,2.8,1.3,5,1.3c1.9,0,2.8-0.5,2.8-1.1c0-0.7-0.7-0.9-1.8-1l-2.6-0.3
	c-3.1-0.4-4.7-1.5-4.7-3.5c0-2.1,1.7-3.8,5.7-3.8c2.2,0,3.6,0.3,4.6,0.7c1,0.4,1.2,0.7,1.2,1.6v1.1c0,0.7-0.2,0.9-0.9,0.9h-0.7
	c-0.7,0-0.9-0.2-0.9-0.9V6.8c-0.4-0.1-1.5-0.4-2.8-0.4c-2.2,0-3.3,0.4-3.3,1.1c0,0.5,0.6,0.8,1.8,1l2.5,0.3c3.1,0.4,4.8,1.3,4.8,3.6
	c0,2.3-2.2,3.7-6,3.7c-2.8,0-5.1-0.9-6-1.7C80.1,14.1,80.1,13.6,80.3,13.2z"/>
<path d="M118.2,9.3V15c0,0.7-0.2,0.9-0.9,0.9h-1c-0.7,0-0.9-0.2-0.9-0.9V9.5c0-1.9-0.9-3-2.8-3c-1.5,0-2.7,0.9-3.6,1.9V15
	c0,0.7-0.2,0.9-0.9,0.9h-1c-0.7,0-0.9-0.2-0.9-0.9V9.5c0-1.9-0.9-3-2.7-3c-1.5,0-2.7,0.9-3.6,1.8V15c0,0.7-0.2,0.9-0.9,0.9h-1
	c-0.7,0-0.9-0.2-0.9-0.9V6.6h-0.9c-0.7,0-0.9-0.2-0.9-0.9V4.9c0-0.7,0.2-0.9,0.9-0.9h2.3c0.7,0,0.9,0.2,0.9,0.9v0.6
	c0.8-0.8,2.1-1.7,4.1-1.7c2.2,0,3.6,0.7,4.5,2c1-1.1,2.5-2,4.6-2C116.1,3.8,118.2,5.7,118.2,9.3z"/>
<path d="M128.4,8.5h2.8V8.1c0-1-1.3-1.7-3.3-1.7c-1.8,0-3.3,0.7-4.1,1.3c-0.5,0.4-1,0.3-1.2-0.3l-0.4-0.8c-0.2-0.4-0.1-0.8,0.2-1.1
	c0.7-0.6,2.7-1.7,5.6-1.7c3.3,0,5.8,1.4,5.8,3.9V15c0,0.7-0.2,0.9-0.9,0.9h-0.8c-0.7,0-0.9-0.2-0.9-0.9v-0.7
	c-0.8,0.9-2.4,1.8-4.7,1.8c-2.6,0-4.9-1.2-4.9-3.7C121.7,9.8,124.1,8.5,128.4,8.5z M126.9,13.6c1.5,0,4.4-0.8,4.4-2.9h-2.6
	c-2.9,0-4.2,0.6-4.2,1.6C124.6,13.1,125.3,13.6,126.9,13.6z"/>
<path d="M150.3,9c0,0.7-0.2,0.9-0.9,0.9h-1c-0.7,0-0.9-0.2-0.9-0.9c0-1.8-0.7-2.5-2.3-2.5c-1.5,0-2.8,1-3.5,2.1V15
	c0,0.7-0.2,0.9-0.9,0.9h-1c-0.7,0-0.9-0.2-0.9-0.9V6.6h-0.9c-0.7,0-0.9-0.2-0.9-0.9V4.9c0-0.7,0.2-0.9,0.9-0.9h2.3
	c0.7,0,0.9,0.2,0.9,0.9v0.8c0.9-1,2.1-1.9,4.4-1.9C149,3.8,150.3,5.8,150.3,9z"/>
<path d="M153,4h1.6V0.9c0-0.7,0.2-0.9,0.9-0.9h1c0.7,0,0.9,0.2,0.9,0.9V4h5.9c0.7,0,0.9,0.2,0.9,0.9v0.8c0,0.7-0.2,0.9-0.9,0.9h-5.9
	v5.2c0,1,0.7,1.6,2.3,1.6c1.3,0,2.1-0.5,2.6-0.8c0.5-0.4,0.9-0.3,1.2,0.3l0.5,0.9c0.2,0.4,0.1,0.7-0.3,1c-0.4,0.4-1.8,1.3-4.3,1.3
	c-2.7,0-4.8-1.2-4.8-3.9V6.6H153c-0.7,0-0.9-0.2-0.9-0.9V4.9C152.1,4.3,152.4,4,153,4z"/>
</svg>
