<svg width="602" height="156" viewBox="0 0 602 156" fill="none" xmlns="http://www.w3.org/2000/svg">
<path d="M593.76 67.8113C569.622 54.8707 549.957 34.1705 537.635 8.72314C535.024 3.33124 531.522 0.623574 528.008 0.58841C527.996 0.58841 527.985 0.58841 527.973 0.58841C527.961 0.58841 527.938 0.58841 527.926 0.58841C527.094 0.58841 526.204 0.658739 525.256 0.811119C429.754 16.9751 171.87 16.9751 76.3684 0.811119C75.4314 0.647017 74.5178 0.576688 73.6863 0.58841C70.1609 0.58841 66.6355 3.29608 64.0003 8.72314C51.679 34.1705 32.0142 54.8825 7.87525 67.8113C-2.49007 73.3673 -2.49007 82.2405 7.87525 87.7965C32.0142 100.737 51.679 121.437 64.0003 146.885C66.6238 152.312 70.1609 155.019 73.6863 155.019C74.5296 155.031 75.4314 154.949 76.3684 154.797C171.87 138.644 429.754 138.644 525.256 154.797C526.204 154.949 527.094 155.031 527.926 155.019C527.938 155.019 527.949 155.019 527.961 155.019C527.973 155.019 527.985 155.019 528.008 155.019C531.51 154.996 535.012 152.288 537.635 146.885C549.968 121.437 569.633 100.725 593.76 87.7965C604.126 82.2405 604.126 73.3673 593.76 67.8113Z" fill="#40E687"/>
</svg>
