<svg width="531" height="150" viewBox="0 0 531 150" fill="none" xmlns="http://www.w3.org/2000/svg">
    <mask id="mask0" mask-type="alpha" maskUnits="userSpaceOnUse" x="0" y="0" width="531" height="150">
        <path d="M523.471 65.4353C500.237 52.9797 481.309 33.0552 469.449 8.56144C466.935 3.3716 463.565 0.765398 460.183 0.731551C460.171 0.731551 460.16 0.731551 460.149 0.731551C460.138 0.731551 460.115 0.731551 460.104 0.731551C459.303 0.731551 458.447 0.799245 457.534 0.945914C365.611 16.5041 165.391 16.5041 73.4682 0.945914C72.5663 0.787963 71.687 0.720269 70.8866 0.731551C67.4933 0.731551 64.1001 3.33775 61.5636 8.56144C49.704 33.0552 30.7761 52.991 7.54181 65.4353C-2.43508 70.7831 -2.43508 79.3237 7.54181 84.6715C30.7761 97.1271 49.704 117.052 61.5636 141.545C64.0888 146.769 67.4933 149.375 70.8866 149.375C71.6983 149.387 72.5663 149.308 73.4682 149.161C165.391 133.614 365.611 133.614 457.534 149.161C458.447 149.308 459.303 149.387 460.104 149.375C460.115 149.375 460.126 149.375 460.138 149.375C460.149 149.375 460.16 149.375 460.183 149.375C463.553 149.353 466.924 146.746 469.449 141.545C481.32 117.052 500.248 97.1158 523.471 84.6715C533.448 79.3237 533.448 70.7831 523.471 65.4353Z"
              fill="#FF64B0"/>
    </mask>
    <g mask="url(#mask0)">
        <path d="M523.471 65.4353C500.237 52.9797 481.309 33.0552 469.449 8.56144C466.935 3.3716 463.565 0.765398 460.183 0.731551C460.171 0.731551 460.16 0.731551 460.149 0.731551C460.138 0.731551 460.115 0.731551 460.104 0.731551C459.303 0.731551 458.447 0.799245 457.534 0.945914C365.611 16.5041 165.391 16.5041 73.4682 0.945914C72.5663 0.787963 71.687 0.720269 70.8866 0.731551C67.4933 0.731551 64.1001 3.33775 61.5636 8.56144C49.704 33.0552 30.7761 52.991 7.54181 65.4353C-2.43508 70.7831 -2.43508 79.3237 7.54181 84.6715C30.7761 97.1271 49.704 117.052 61.5636 141.545C64.0888 146.769 67.4933 149.375 70.8866 149.375C71.6983 149.387 72.5663 149.308 73.4682 149.161C165.391 133.614 365.611 133.614 457.534 149.161C458.447 149.308 459.303 149.387 460.104 149.375C460.115 149.375 460.126 149.375 460.138 149.375C460.149 149.375 460.16 149.375 460.183 149.375C463.553 149.353 466.924 146.746 469.449 141.545C481.32 117.052 500.248 97.1158 523.471 84.6715C533.448 79.3237 533.448 70.7831 523.471 65.4353Z"
              fill="#FCDE00"/>
        <g filter="url(#filter0_f)">
            <path d="M142.851 231.245L49.5628 279.138C19.5767 294.532 -17.2331 282.681 -32.6388 252.673L-32.9007 252.163C-48.3064 222.155 -36.4826 185.336 -6.49655 169.942L86.7918 122.049C116.778 106.655 153.588 118.506 168.993 148.514L169.255 149.024C184.661 179.032 172.837 215.851 142.851 231.245Z"
                  fill="#FF9E00"/>
        </g>
        <g filter="url(#filter1_f)">
            <path d="M-541.823 176.348C-521.871 171.983 -512.528 157.213 -517.968 132.345L-526.128 95.0434C-531.536 70.32 -546.225 60.6557 -566.177 65.0204C-586.129 69.385 -595.441 84.2995 -590.033 109.023L-581.873 146.325C-576.433 171.193 -561.776 180.712 -541.823 176.348ZM-544.733 163.046C-555.721 165.45 -563.587 160.656 -567.414 143.162L-575.574 105.86C-579.37 88.5104 -574.111 80.6939 -563.267 78.3218C-552.279 75.9181 -544.381 80.8564 -540.586 98.2061L-532.426 135.508C-528.599 153.002 -533.89 160.674 -544.733 163.046ZM-479.639 161.23L-486.186 131.301L-451.487 123.711L-444.94 153.639L-430.482 150.476L-446.296 78.1857L-460.754 81.3485L-454.365 110.554L-489.064 118.145L-495.453 88.9392L-509.911 92.102L-494.097 164.392L-479.639 161.23ZM-354.018 133.749L-369.832 61.4589L-423.327 73.1612C-416.355 105.724 -414.647 118.379 -415.022 124.975C-415.266 130.786 -417.941 133.795 -421.845 134.649L-423.001 134.902L-420.092 148.203L-417.489 147.634C-405.923 145.104 -400.605 138.941 -401.522 120.204C-402.073 112.144 -403.849 100.564 -407.26 83.5845L-381.38 77.9231L-368.476 136.912L-354.018 133.749ZM-315.44 126.825C-305.031 124.548 -296.663 118.476 -293.979 107.89L-291.322 120.034L-277.154 116.935L-288.223 66.3315C-291.892 49.5601 -307.742 46.3613 -323.357 49.7771C-339.261 53.2562 -352.747 63.63 -348.667 82.2809L-333.631 78.9916C-335.687 69.5939 -330.224 63.3994 -320.826 61.3436C-312.007 59.4143 -304.358 61.8315 -302.808 68.916C-299.202 85.3982 -351.342 80.442 -344.51 111.672C-341.379 125.985 -328.308 129.64 -315.44 126.825ZM-329.953 107.578C-332.61 95.4332 -309.969 93.662 -298.976 85.0458L-297.838 90.2507C-295.086 102.829 -304.073 111.613 -315.206 114.048C-322.579 115.661 -328.593 113.795 -329.953 107.578ZM-242.062 -4.36642C-240.291 3.73013 -244.045 8.03595 -249.829 9.30107C-255.178 10.4713 -260.677 8.18965 -262.448 0.093108L-274.014 2.62334C-271.041 16.214 -260.451 22.3812 -247.583 19.5663C-234.571 16.7198 -227.523 6.69398 -230.496 -6.89665L-242.062 -4.36642ZM-195.642 99.1038L-211.456 26.8133L-229.818 30.83L-250.307 95.7606L-262.927 38.0728L-276.807 41.1091L-260.993 113.4L-242.631 109.383L-222.141 44.4522L-209.522 102.14L-195.642 99.1038ZM-163.75 92.1273L-170.297 62.199L-135.597 54.6083L-129.05 84.5366L-114.592 81.3738L-130.406 9.08326L-144.864 12.246L-138.476 41.4514L-173.175 49.0421L-179.564 19.8367L-194.022 22.9995L-178.208 95.29L-163.75 92.1273ZM-72.2636 37.4207L-75.1733 24.1192L-110.162 31.7732L-107.252 45.0746L-72.2636 37.4207ZM-50.6777 -8.35779L-66.2924 -4.94198L-50.4785 67.3485L47.8366 45.8416L32.0227 -26.4489L17.5646 -23.2861L30.4687 35.7029L2.99835 41.7122L-9.90582 -17.2768L-24.3639 -14.1141L-11.4598 44.875L-37.7735 50.6313L-50.6777 -8.35779ZM63.9893 -33.4418L49.5312 -30.279L65.3451 42.0115L79.8032 38.8488L71.4851 0.823936L114.358 31.2897L132.72 27.273L87.5381 -4.05124L114.303 -44.4483L95.0742 -40.2418L71.0106 -1.34478L63.9893 -33.4418ZM168.38 20.9871C189.344 16.4011 201.575 -2.48491 196.736 -24.6058C191.897 -46.7267 172.898 -58.7811 151.934 -54.195C130.969 -49.609 118.739 -30.723 123.578 -8.60212C128.417 13.5188 147.416 25.5731 168.38 20.9871ZM165.47 7.68565C152.892 10.4373 141.23 2.83778 138.036 -11.7649C134.841 -26.3676 142.265 -38.142 154.843 -40.8936C167.422 -43.6452 179.083 -36.0457 182.278 -21.443C185.472 -6.84034 178.049 4.93403 165.47 7.68565ZM276.631 -4.20839L260.817 -76.4989L207.322 -64.7966C214.294 -32.2342 216.002 -19.5789 215.627 -12.9824C215.383 -7.172 212.708 -4.16289 208.805 -3.30894L207.648 -3.05591L210.558 10.2455L213.16 9.67624C224.727 7.14601 230.044 0.983213 229.127 -17.7536C228.576 -25.814 226.8 -37.394 223.389 -54.3733L249.269 -60.0347L262.173 -1.0456L276.631 -4.20839ZM315.209 -11.1325C325.619 -13.4097 333.986 -19.4821 336.67 -30.0682L339.327 -17.9234L353.496 -21.0229L342.426 -71.6263C338.757 -88.3977 322.908 -91.5965 307.293 -88.1807C291.389 -84.7016 277.902 -74.3278 281.982 -55.6769L297.019 -58.9662C294.963 -68.3639 300.425 -74.5584 309.823 -76.6142C318.642 -78.5435 326.292 -76.1263 327.841 -69.0418C331.447 -52.5596 279.307 -57.5158 286.139 -26.2862C289.27 -11.9727 302.341 -8.3176 315.209 -11.1325ZM300.697 -30.3798C298.04 -42.5246 320.68 -44.2958 331.673 -52.912L332.812 -47.7071C335.563 -35.1285 326.577 -26.3452 315.444 -23.9098C308.07 -22.2968 302.057 -24.1628 300.697 -30.3798ZM-561.983 243.479C-558.82 257.937 -549.002 264.728 -537.684 269.372L-524.523 274.826C-516.042 278.273 -509.283 282.854 -507.322 291.818C-505.424 300.493 -509.925 306.932 -518.889 308.892C-527.708 310.822 -534.883 305.725 -537.128 295.46L-538.678 288.376L-553.136 291.538L-551.365 299.635C-547.285 318.286 -532.027 325.705 -515.979 322.194C-499.93 318.683 -489.005 306.294 -493.244 286.921C-496.311 272.896 -506.066 266.395 -517.24 261.718L-530.785 255.894C-538.913 252.673 -545.659 248.846 -547.525 240.316C-549.423 231.641 -545.23 225.876 -537.567 224.2C-529.471 222.428 -523.335 226.237 -520.899 237.37L-519.539 243.587L-505.081 240.424L-506.536 233.773C-510.806 214.255 -525.007 207.514 -540.477 210.898C-555.513 214.187 -566.126 224.539 -561.983 243.479ZM-484.016 200.062L-498.474 203.225L-474.753 311.661L-460.295 308.498L-468.613 270.473L-425.74 300.939L-407.379 296.922L-452.56 265.598L-425.795 225.201L-445.024 229.407L-469.088 268.304L-484.016 200.062ZM-365.577 296.262L-354.68 209.644L-369.138 212.807L-376.705 277.941L-410.922 221.947L-425.38 225.11L-379.199 299.09C-381.359 311.38 -385.104 317.804 -394.213 319.797C-397.683 320.556 -401.167 320.561 -404.103 320.294L-401.32 333.017C-398.383 333.284 -394.177 333.121 -390.129 332.236C-372.345 328.345 -367.886 314.795 -365.577 296.262ZM-279.862 247.666C-286.314 218.171 -327.596 240.685 -331.107 224.637C-332.372 218.854 -327.894 214.39 -320.087 212.682C-311.701 210.847 -304.377 214.548 -302.859 221.487L-287.823 218.198C-290.732 204.897 -305.701 197.415 -322.617 201.115C-338.232 204.531 -348.461 215.253 -345.583 228.41C-339.226 257.47 -298.454 234.007 -294.627 251.502C-293.204 258.008 -297.681 262.472 -306.501 264.401C-315.754 266.425 -323.674 263.461 -325.603 254.642L-340.64 257.931C-337.192 273.69 -321.785 279.713 -304.002 275.823C-287.231 272.154 -276.889 261.256 -279.862 247.666ZM-225.652 213.688L-216.575 255.183L-202.117 252.02L-211.194 210.525C-214.041 197.513 -209.536 189.71 -199.704 187.559C-190.018 185.44 -182.811 190.681 -179.965 203.694L-170.887 245.188L-156.429 242.026L-166.139 197.639C-170.472 177.832 -183.403 170.661 -198.006 173.856C-208.416 176.133 -215.726 182.883 -217.863 193.198C-224.175 184.428 -233.573 181.636 -243.838 183.882C-252.513 185.779 -258.856 191.409 -261.404 199.845L-263.618 189.724L-278.077 192.887L-262.263 265.177L-247.804 262.014L-256.882 220.52C-259.728 207.507 -255.224 199.704 -245.537 197.585C-235.85 195.466 -228.499 200.676 -225.652 213.688ZM-118.526 235.249C-108.116 232.972 -99.7484 226.899 -97.0646 216.313L-94.4079 228.458L-80.2389 225.359L-91.3087 174.755C-94.9775 157.984 -110.827 154.785 -126.442 158.201C-142.346 161.68 -155.833 172.054 -151.753 190.705L-136.716 187.415C-138.772 178.018 -133.31 171.823 -123.912 169.767C-115.092 167.838 -107.443 170.255 -105.893 177.34C-102.288 193.822 -154.427 188.866 -147.596 220.095C-144.465 234.409 -131.394 238.064 -118.526 235.249ZM-133.038 216.002C-135.695 203.857 -113.054 202.086 -102.062 193.47L-100.923 198.674C-98.1716 211.253 -107.158 220.036 -118.291 222.472C-125.665 224.085 -131.678 222.219 -133.038 216.002ZM-65.4338 146.37L-79.8919 149.533L-64.078 221.823L-49.6199 218.661L-57.5585 182.371C-60.8162 167.479 -54.3643 158.189 -40.4845 155.153C-37.5929 154.521 -34.8955 154.385 -32.5687 154.634L-36.0161 138.874C-37.236 138.838 -39.0026 139.073 -40.7376 139.453C-51.7258 141.856 -59.4382 148.846 -62.5873 159.382L-65.4338 146.37ZM3.42487 181.15L-4.19744 146.306L16.6222 141.752L13.839 129.029L-6.98069 133.583L-11.6616 112.185L-26.1197 115.348L-21.4388 136.746L-33.2944 139.339L-30.5112 152.062L-18.6555 149.469L-10.8435 185.181C-6.54208 204.844 4.81208 208.268 18.6919 205.232C22.8847 204.315 27.177 202.467 29.5896 201.03L26.7748 188.162C24.5067 189.567 21.7099 190.634 18.5291 191.33C10.1434 193.164 5.3858 190.114 3.42487 181.15Z"
                  fill="#FF9E00"/>
        </g>
        <path d="M88.435 95.3242V62.2437H106.759V95.3242H114.867V54.7844H80.327V95.3242H88.435ZM142.225 96.135C153.981 96.135 162.738 87.4595 162.738 75.0543C162.738 62.6491 153.981 53.9736 142.225 53.9736C130.468 53.9736 121.711 62.6491 121.711 75.0543C121.711 87.4595 130.468 96.135 142.225 96.135ZM142.225 88.6757C135.171 88.6757 129.819 83.2434 129.819 75.0543C129.819 66.8653 135.171 61.4329 142.225 61.4329C149.279 61.4329 154.63 66.8653 154.63 75.0543C154.63 83.2434 149.279 88.6757 142.225 88.6757ZM203.047 95.3242V54.7844L173.048 54.7844C172.967 73.0273 172.399 80.0002 171.426 83.4866C170.615 86.5676 168.832 87.8649 166.643 87.8649H165.994V95.3242H167.453C173.94 95.3242 177.507 92.6486 179.21 82.5136C179.859 78.1353 180.264 71.7301 180.426 62.2437H194.939V95.3242H203.047ZM230.929 99.8647L246.902 54.7844H238.794L227.119 88.7568L215.362 54.7844H207.254L223.308 99.7836C220.713 106.108 217.957 109.108 212.849 109.108C210.903 109.108 209.038 108.702 207.497 108.216V115.351C209.038 115.837 211.308 116.243 213.578 116.243C223.551 116.243 227.524 109.513 230.929 99.8647ZM275.296 72.9462C273.756 73.3516 271.323 73.9192 267.35 73.9192C260.702 73.9192 257.053 71.2436 257.053 63.9464V54.7844H248.945V64.0275C248.945 76.2705 254.783 81.3785 266.702 81.3785C269.539 81.3785 273.026 80.9731 275.296 80.2434V95.3242H283.404V54.7844H275.296V72.9462ZM329.712 95.3242V54.7844H319.415L300.848 87.1352V54.7844H293.064V95.3242H303.361L321.929 62.9735V95.3242H329.712ZM356.131 95.3242V62.2437H369.265V54.7844H334.888V62.2437H348.023V95.3242H356.131ZM402.698 70.9193H411.131C410.158 60.7843 401.807 53.9736 391.104 53.9736C379.51 53.9736 370.915 62.6491 370.915 75.0543C370.915 87.4595 379.51 96.135 391.104 96.135C402.131 96.135 410.644 89 411.293 78.2975H402.861C402.05 85.0271 397.023 88.6757 391.104 88.6757C384.212 88.6757 379.023 83.2434 379.023 75.0543C379.023 66.8653 384.212 61.4329 391.104 61.4329C396.942 61.4329 401.888 64.7572 402.698 70.9193ZM416.552 67.1085C416.552 74.9732 422.795 79.1894 429.606 79.5948L413.714 95.3242H423.2L440.714 77.5678H440.795V95.3242H448.903V54.7844H431.471C423.363 54.7844 416.552 58.2708 416.552 67.1085ZM432.849 73.8381C427.741 73.8381 424.66 71.8111 424.66 67.1896C424.66 63.0545 427.741 60.9465 432.849 60.9465H440.795V73.8381H432.849Z"
              fill="white"/>
    </g>
    <defs>
        <filter id="filter0_f" x="-72.7994" y="82.171" width="281.953" height="236.845" filterUnits="userSpaceOnUse"
                color-interpolation-filters="sRGB">
            <feFlood flood-opacity="0" result="BackgroundImageFix"/>
            <feBlend mode="normal" in="SourceGraphic" in2="BackgroundImageFix" result="shape"/>
            <feGaussianBlur stdDeviation="6" result="effect1_foregroundBlur"/>
        </filter>
        <filter id="filter1_f" x="-603.549" y="-101.403" width="969.045" height="446.537" filterUnits="userSpaceOnUse"
                color-interpolation-filters="sRGB">
            <feFlood flood-opacity="0" result="BackgroundImageFix"/>
            <feBlend mode="normal" in="SourceGraphic" in2="BackgroundImageFix" result="shape"/>
            <feGaussianBlur stdDeviation="6" result="effect1_foregroundBlur"/>
        </filter>
    </defs>
</svg>
