<svg version="1.1" xmlns="http://www.w3.org/2000/svg" xmlns:xlink="http://www.w3.org/1999/xlink" x="0px"
     y="0px"
     viewBox="0 0 226.9 122.8" enable-background="new 0 0 226.9 122.8" xml:space="preserve">
    <clipPath id="clip">
        <path d="M165.9,122.7H61c-33.6,0.1-61-27.2-61-61v-0.6C0,27.4,27.3,0.1,61,0h104.9C199.6,0,227,27.3,227,61.1v0.6
	C227,95.4,199.6,122.7,165.9,122.7z"/>
    </clipPath>
<path fill="#00C1FF" d="M165.9,122.7H61c-33.6,0.1-61-27.2-61-61v-0.6C0,27.4,27.3,0.1,61,0h104.9C199.6,0,227,27.3,227,61.1v0.6
	C227,95.4,199.6,122.7,165.9,122.7z"/>

    <path fill="#FFFFFF" d="M53.5,82.9h20.8c8.4,0,13.6-3.9,13.6-11.7c0-5.1-2.8-8.4-7.3-9.8c3.5-1.5,5.6-4.2,5.6-8.5
		c0-7.1-5.1-10.5-12.6-10.5H53.5V82.9z M71.3,48.5c5,0,7.1,1.6,7.1,5.3c0,3.4-2.1,5.3-7.1,5.3h-10V48.6L71.3,48.5z M72.9,65.2
		c4.5,0,6.9,2,6.9,5.8c0,3.7-2.3,5.8-6.9,5.8H61.3V65.3L72.9,65.2z M125,58.5h8.4c-1-10.1-9.3-16.9-20-16.9
		c-11.6,0-20.2,8.7-20.2,21.1s8.6,21.1,20.2,21.1c11,0,19.5-7.1,20.2-17.8h-8.4c-0.8,6.7-5.8,10.4-11.8,10.4
		c-6.9,0-12.1-5.4-12.1-13.6s5.2-13.6,12.1-13.6C119.2,49,124.1,52.3,125,58.5z M177.1,65.4c0.1-0.9,0.2-1.8,0.2-2.8
		c0-12.4-8.4-21.1-20-21.1c-11.5,0-19.9,8.7-19.9,21.1s8.4,21.1,20,21.1c9.3,0,16.4-4.6,18.9-13h-8.8c-1.6,3.6-4.9,5.8-9.8,5.8
		c-6.8,0-11.4-4.1-12.3-11.2L177.1,65.4z M157.3,48.7c6.5,0,10.9,4,11.9,10.9h-23.8C146.3,52.7,150.7,48.7,157.3,48.7z"/>
</svg>
